<?xml version="1.0" encoding="utf-8"?>
<!-- Generator: Adobe Illustrator 17.0.0, SVG Export Plug-In . SVG Version: 6.00 Build 0)  -->
<!DOCTYPE svg PUBLIC "-//W3C//DTD SVG 1.1//EN" "http://www.w3.org/Graphics/SVG/1.1/DTD/svg11.dtd">
<svg version="1.1" id="Layer_1" xmlns="http://www.w3.org/2000/svg" xmlns:xlink="http://www.w3.org/1999/xlink" x="0px" y="0px"
	 width="374px" height="374px" viewBox="325 -90.036 374 374" enable-background="new 325 -90.036 374 374" xml:space="preserve">
<circle fill="#CEE8FA" cx="511.999" cy="96.963" r="51.807"/>
<path fill="#2D527C" d="M512,162.28c-17.446,0-33.848-6.794-46.184-19.131c-12.335-12.337-19.13-28.737-19.13-46.184
	c0-17.444,6.794-33.847,19.13-46.184c12.337-12.335,28.737-19.13,46.184-19.13s33.847,6.794,46.184,19.13
	c12.335,12.337,19.13,28.739,19.13,46.184c0,17.446-6.794,33.847-19.13,46.184C545.848,155.485,529.445,162.28,512,162.28z
	 M512,58.656c-10.233,0-19.854,3.984-27.089,11.222c-7.235,7.235-11.222,16.855-11.222,27.089s3.984,19.854,11.22,27.089
	c7.235,7.235,16.855,11.223,27.089,11.223s19.854-3.985,27.088-11.223c7.235-7.234,11.222-16.854,11.222-27.089
	c0-10.231-3.984-19.852-11.222-27.089C531.853,62.641,522.232,58.656,512,58.656z"/>
<path fill="#2D527C" d="M644.854,193.929c-3.846,0-7.664-1.634-10.334-4.806c-4.804-5.704-4.073-14.222,1.631-19.025
	c2.223-1.871,4.357-3.828,6.342-5.813c18.828-18.827,29.198-43.908,29.198-70.618s-10.369-51.789-29.198-70.618
	c-5.272-5.272-5.272-13.822,0-19.096c5.272-5.271,13.822-5.271,19.096,0c49.467,49.469,49.467,129.957,0,179.425
	c-2.529,2.527-5.234,5.009-8.043,7.375C651.012,192.888,647.924,193.929,644.854,193.929z"/>
<path fill="#2D527C" d="M598.805,172.109c-3.992,0-7.944-1.762-10.608-5.139c-4.619-5.854-3.618-14.345,2.236-18.964
	c2.159-1.704,4.217-3.529,6.116-5.431c13.025-13.025,20.199-30.375,20.199-48.855s-7.174-35.829-20.196-48.853
	c-5.272-5.272-5.273-13.822,0-19.096c5.272-5.271,13.822-5.271,19.095,0c18.125,18.125,28.107,42.256,28.107,67.947
	s-9.982,49.823-28.105,67.948c-2.644,2.644-5.499,5.181-8.486,7.537C604.683,171.162,601.732,172.109,598.805,172.109z"/>
<path fill="#2D527C" d="M379.146,193.929c-3.07,0-6.158-1.041-8.691-3.174c-2.809-2.365-5.515-4.848-8.043-7.375
	c-49.467-49.469-49.467-129.957,0-179.425c5.272-5.271,13.822-5.271,19.096,0c5.272,5.272,5.272,13.822,0,19.096
	c-18.83,18.828-29.198,43.908-29.198,70.619s10.369,51.789,29.198,70.618c1.986,1.986,4.119,3.942,6.342,5.813
	c5.704,4.804,6.434,13.321,1.631,19.025C386.811,192.295,382.991,193.929,379.146,193.929z"/>
<path fill="#2D527C" d="M425.196,172.109c-2.929,0-5.877-0.948-8.355-2.901c-2.986-2.356-5.843-4.894-8.487-7.538
	c-18.122-18.124-28.104-42.256-28.104-67.947s9.982-49.822,28.107-67.947c5.272-5.271,13.822-5.27,19.095,0
	c5.272,5.272,5.272,13.822,0,19.096c-13.024,13.024-20.196,30.373-20.196,48.853s7.174,35.829,20.197,48.854
	c1.901,1.902,3.959,3.729,6.118,5.432c5.854,4.619,6.854,13.109,2.236,18.964C433.142,170.348,429.188,172.109,425.196,172.109z"/>
</svg>
